<?xml version="1.0" encoding="UTF-8" standalone="no"?>
<!-- Created with Inkscape (http://www.inkscape.org/) -->

<svg
   width="512"
   height="512"
   viewBox="0 0 512 512"
   version="1.1"
   id="svg1"
   xml:space="preserve"
   xmlns:inkscape="http://www.inkscape.org/namespaces/inkscape"
   xmlns:sodipodi="http://sodipodi.sourceforge.net/DTD/sodipodi-0.dtd"
   xmlns="http://www.w3.org/2000/svg"
   xmlns:svg="http://www.w3.org/2000/svg"><sodipodi:namedview
     id="namedview1"
     pagecolor="#ffffff"
     bordercolor="#000000"
     borderopacity="0.25"
     inkscape:showpageshadow="2"
     inkscape:pageopacity="0.0"
     inkscape:pagecheckerboard="0"
     inkscape:deskcolor="#d1d1d1"
     inkscape:document-units="px"><inkscape:page
       x="0"
       y="0"
       width="512"
       height="512"
       id="page2"
       margin="0"
       bleed="0" /></sodipodi:namedview><defs
     id="defs1" /><g
     inkscape:label="Capa 1"
     inkscape:groupmode="layer"
     id="layer1"><path
       style="fill:#245ea7;fill-opacity:1;stroke-width:0.348217"
       d="m 76.550292,370.1942 c 0,-0.44136 6.975338,-3.47789 15.321538,-6.66986 11.46668,-4.38537 24.0562,-8.50177 37.69446,-12.325 3.59098,-1.00666 6.52906,-1.9732 6.52906,-2.14786 0,-0.17466 -0.51294,-0.91683 -1.13987,-1.64926 -1.88647,-2.20392 -4.76375,-7.33092 -5.53271,-9.8587 -1.06719,-3.50815 -0.81177,-5.03668 1.91276,-11.44692 4.6354,-10.90604 11.37583,-25.17964 12.59428,-26.66978 0.044,-0.0538 2.86578,-0.88502 6.27063,-1.84715 11.61149,-3.28114 13.91431,-5.0214 16.83306,-12.7209 l 1.28649,-3.39369 3.12666,-0.61211 c 1.71966,-0.33666 3.49351,-0.62161 3.94189,-0.63323 0.44838,-0.0116 2.40709,0.9725 4.3527,2.18694 5.73336,3.57872 13.94372,7.09517 21.04914,9.01525 2.24278,0.60606 4.12952,1.13575 4.19276,1.17709 0.37902,0.24779 -1.10829,6.0312 -1.902,7.39596 -1.11147,1.9111 -5.19942,6.08052 -7.48955,7.63881 -3.29415,2.24146 -8.90813,4.71831 -13.53163,5.97006 -2.83179,0.76668 -10.36534,1.94726 -15.70624,2.46133 -3.92891,0.37815 -6.50187,1.14391 -7.39477,2.20082 -0.35257,0.41733 -1.05771,1.22931 -1.56697,1.80441 -0.88115,0.99505 -2.82351,3.352 -6.6205,8.03366 -2.2604,2.78706 -3.16936,4.63816 -3.27356,6.66665 l -0.0855,1.6649 4.00449,0.19391 c 4.23021,0.20484 5.6983,0.68659 7.66077,2.51388 1.14224,1.06355 2.94486,3.39418 3.24197,4.19156 0.1294,0.34729 0.36288,0.55259 0.51884,0.4562 0.416,-0.25711 16.45161,-2.80394 25.31528,-4.02066 12.96799,-1.78013 21.44496,-2.61836 38.97911,-3.85442 2.86114,-0.2017 5.24683,-0.41146 5.30151,-0.46615 0.0953,-0.0953 -2.646,-1.76159 -9.43727,-5.7362 -11.30637,-6.61707 -14.21944,-9.01711 -15.13834,-12.47224 -0.31161,-1.17169 -0.25037,-2.06639 0.33368,-4.87504 0.43372,-2.08567 0.84359,-5.97615 1.04107,-9.88198 0.17915,-3.5431 0.56798,-7.69558 0.86408,-9.22774 0.29609,-1.53215 0.62692,-3.26238 0.73515,-3.84496 l 0.19681,-1.05922 -4.29946,-0.98299 c -6.30375,-1.44123 -10.42779,-2.69266 -14.81479,-4.4955 -5.58466,-2.29502 -7.54295,-3.35211 -11.01851,-5.94784 -3.70889,-2.76999 -3.87906,-2.78852 -11.47262,-1.2493 -9.39176,1.90369 -20.35297,5.99049 -35.24401,13.14044 -20.17325,9.6862 -28.81733,13.22973 -39.69671,16.27314 -18.297011,5.11843 -34.124584,5.22671 -49.805919,0.34075 C 39.848996,303.9268 32.75301,300.43585 28.670486,297.55643 24.083073,294.3209 18.365528,288.46807 15.297226,283.86671 12.76333,280.06678 9.043685,272.82087 7.629589,268.93007 l -0.74172,-2.04079 3.230535,3.27058 c 4.996815,5.05874 10.454185,9.04755 16.568514,12.10996 4.772022,2.39011 9.533532,3.97712 14.262792,4.75377 4.096556,0.67273 12.827223,0.75442 17.49331,0.16368 4.756671,-0.60223 11.896164,-2.54217 17.555936,-4.77028 10.748266,-4.23135 21.93496,-10.90998 37.288194,-22.26163 29.05809,-21.48453 44.79872,-31.10497 63.30101,-38.68861 4.95139,-2.02946 19.73146,-6.94489 26.48116,-8.80689 13.1552,-3.62905 27.02555,-6.33869 43.75895,-8.54855 3.73462,-0.4932 9.61078,-1.28218 13.05813,-1.75329 3.44734,-0.47111 8.06992,-1.10118 10.27239,-1.40015 13.92835,-1.89068 42.33991,-8.02891 62.15668,-13.42874 2.8728,-0.7828 6.63354,-1.80447 8.35722,-2.27037 7.20337,-1.94707 16.2674,-5.13382 22.11176,-7.7741 2.20247,-0.995 8.66181,-4.14074 14.3541,-6.99054 12.2181,-6.11689 15.97609,-7.77789 21.97812,-9.71414 11.35224,-3.66223 19.89436,-5.22276 30.06135,-5.49182 7.80298,-0.20649 11.11717,0.16572 17.6537,1.9827 3.00549,0.83544 4.33934,1.00141 8.98804,1.11845 l 5.45881,0.13742 2.65078,1.34547 c 1.9187,0.97388 3.66722,2.30368 6.33114,4.81502 3.21306,3.02904 4.14219,3.6874 7.31789,5.18538 2.00066,0.94371 5.94034,2.50515 8.75486,3.46988 11.04182,3.78478 15.16784,6.52036 16.7434,11.10103 0.84915,2.46879 1.30776,6.52742 0.9519,8.4243 l -0.22581,1.20367 -1.82667,-0.15148 c -1.11708,-0.0926 -3.98967,0.2321 -7.39485,0.83598 -4.59775,0.81535 -6.50887,0.98349 -10.96556,0.96476 -6.75281,-0.0284 -8.37447,-0.37792 -23.33052,-5.0286 -5.30221,-1.64877 -10.22551,-2.64318 -14.6251,-2.95401 -3.27571,-0.23143 -14.5452,0.37077 -16.3173,0.87193 -0.82763,0.23407 -0.76298,0.28057 0.64755,0.46584 0.86183,0.1132 3.1736,0.29226 5.13725,0.39791 8.18577,0.44041 16.18664,2.06852 27.42101,5.57996 8.24037,2.57563 12.00419,3.54204 15.73264,4.03956 3.71189,0.49532 10.66443,0.23737 14.56222,-0.54029 3.26945,-0.65228 7.89336,-1.20165 8.27804,-0.98351 0.50595,0.28691 -1.63961,3.66164 -3.07659,4.83915 -2.05001,1.67982 -6.83477,3.80614 -10.02668,4.45579 -3.06855,0.62454 -8.98071,0.71974 -12.4115,0.19985 -1.24487,-0.18864 -4.53552,-0.43717 -7.31255,-0.55228 -8.94613,-0.37083 -12.42631,0.8656 -26.36233,9.36596 -8.43401,5.14437 -14.29841,7.31731 -25.17375,9.32763 -14.023,2.59215 -19.2638,5.80268 -30.65355,18.77844 -4.47519,5.09836 -9.32156,9.83433 -9.77611,9.55339 -0.24088,-0.14888 -0.32875,-0.11262 -0.20649,0.0852 0.47466,0.76803 -6.21101,6.28069 -13.33744,10.99738 -5.07118,3.3564 -14.89342,8.37308 -22.96248,11.72802 -2.76613,1.1501 -5.05563,2.05605 -5.08777,2.01323 -0.0321,-0.0428 -0.1558,-2.19906 -0.27479,-4.79165 l -0.21634,-4.71378 1.64784,-0.47989 c 5.06302,-1.47446 13.19828,-6.69391 16.9796,-10.89384 3.78018,-4.19868 4.34376,-5.67158 1.13824,-2.97482 -5.48566,4.61501 -13.36261,8.07556 -21.86738,9.60693 -2.33825,0.42104 -3.624,0.80538 -3.56675,1.06621 0.90233,4.11114 1.04155,17.02345 0.26575,24.64792 -1.42407,13.99553 -3.36964,19.41514 -8.26658,23.0276 -1.01131,0.74606 -3.87583,2.26519 -6.36558,3.37586 -2.48974,1.11068 -6.72058,3.05154 -9.40185,4.31301 -4.62441,2.17569 -5.02719,2.29996 -7.83487,2.41725 -3.51351,0.14678 -8.74907,-0.81635 -11.64521,-2.14224 -2.23377,-1.02266 -5.13284,-3.61219 -6.28445,-5.61346 -1.0315,-1.79253 -1.65944,-4.72612 -1.51182,-7.06291 l 0.11545,-1.82767 2.07692,1.38147 c 2.43497,1.61964 6.14181,2.61905 8.34923,2.25107 1.96844,-0.32813 4.32515,-1.59774 5.76592,-3.10624 4.04676,-4.23692 8.03633,-6.44692 11.63826,-6.44692 0.81284,0 1.56655,-0.0886 1.67489,-0.19698 0.10833,-0.10833 -0.4344,-1.79283 -1.20606,-3.74332 -3.15366,-7.97128 -5.99883,-17.69361 -7.12309,-24.34051 -0.89191,-5.27321 -0.87096,-14.79666 0.0378,-17.16147 0.88547,-2.30434 2.62077,-5.10152 3.01405,-4.85846 0.17239,0.10654 0.23466,-0.0116 0.1384,-0.26241 -0.44047,-1.14783 7.26394,-9.94811 11.65913,-13.31751 5.36035,-4.10932 10.07239,-6.78959 14.6412,-8.32812 1.35647,-0.45679 2.56405,-0.92827 2.68352,-1.04773 0.4318,-0.4318 -4.16847,-0.20452 -6.79082,0.33551 -5.62815,1.15901 -10.6618,3.57809 -15.94159,7.66126 -6.80252,5.26075 -14.20402,15.80713 -15.12991,21.55854 -0.44352,2.75505 -0.42974,7.74936 0.033,11.94015 0.43351,3.92659 2.11803,12.30475 3.1106,15.47098 0.37714,1.20301 0.68771,2.28318 0.69019,2.40037 0.007,0.31173 -3.39241,0.60407 -11.83488,1.01788 -10.51971,0.51565 -23.08506,-0.27318 -33.48192,-2.10192 l -2.31652,-0.40746 -7.1e-4,-4.58404 c -3.4e-4,-3.27198 -0.20185,-5.53088 -0.70368,-7.89209 -2.30356,-10.83875 -8.99653,-21.68254 -17.21341,-27.88874 -1.57798,-1.19185 -2.83603,-2.28071 -2.79566,-2.4197 0.0403,-0.13899 -0.19467,-0.23197 -0.52232,-0.20661 -0.32765,0.0254 -0.55266,-0.16144 -0.50004,-0.41507 0.0526,-0.25364 -0.0584,-0.36593 -0.24674,-0.24953 -0.18834,0.1164 -1.41254,-0.32726 -2.72044,-0.98591 -3.89153,-1.95975 -6.47758,-2.90224 -11.10507,-4.04726 -5.61238,-1.38873 -6.18245,-1.17465 -1.43585,0.53922 1.81595,0.65569 6.20014,3.0396 8.74723,4.75633 4.82482,3.25189 11.23384,9.04493 10.79402,9.75658 -0.13318,0.21549 -0.0698,0.27509 0.14879,0.13998 0.61955,-0.3829 5.37101,6.16718 7.79686,10.74831 1.38657,2.6185 3.37219,8.61914 3.95169,11.94226 0.66592,3.81868 0.65688,10.38465 -0.0192,13.9487 -1.02318,5.39373 -3.45566,11.74409 -7.43787,19.41765 -1.58341,3.05117 -2.01534,4.17131 -1.69147,4.38657 0.23921,0.159 1.37511,0.85666 2.52423,1.55039 1.14911,0.69371 4.7936,3.07994 8.09886,5.30272 3.30525,2.22279 6.43274,4.26152 6.94994,4.53052 0.69145,0.35962 2.51134,0.4979 6.87447,0.52233 5.6751,0.0318 6.01765,0.0736 7.84925,0.95791 3.19038,1.54038 7.36517,5.74358 9.16666,9.22903 l 0.5686,1.10009 5.25776,0.0446 c 16.57882,0.14043 42.32795,2.45326 64.09661,5.75727 21.48452,3.26086 51.35214,10.58015 72.73287,17.82374 8.12947,2.75418 24.9304,9.32804 27.3546,10.70329 1.2182,0.69108 1.10992,0.66739 -5.24284,-1.14744 -5.43505,-1.55265 -16.85913,-4.35108 -23.50463,-5.75767 -2.39399,-0.50672 -5.68463,-1.22342 -7.31255,-1.59267 -8.70407,-1.97433 -30.00528,-5.81358 -43.3529,-7.81377 -41.72607,-6.25282 -86.25743,-8.51996 -133.54111,-6.79872 -5.07526,0.18476 -11.49986,0.48827 -14.27689,0.67447 -2.77703,0.18622 -7.63465,0.5053 -10.79471,0.70909 -22.46738,1.44888 -55.39278,5.75594 -78.69699,10.29458 -3.35159,0.65274 -7.34738,1.43153 -8.87953,1.73063 -13.69282,2.67308 -31.976366,7.0625 -42.569498,10.21986 -0.62244,0.18552 -1.131704,0.27254 -1.131704,0.19338 z M 239.7536,297.89237 c -0.11116,-0.27777 -0.19367,-0.19527 -0.21038,0.21039 -0.0151,0.36707 0.0672,0.57274 0.18289,0.45704 0.1157,-0.11571 0.12808,-0.41606 0.0275,-0.66743 z M 73.322034,284.51505 c -0.11571,-0.11571 -0.416053,-0.12808 -0.667413,-0.0275 -0.277786,0.11116 -0.195278,0.19367 0.210379,0.21038 0.367079,0.0151 0.572745,-0.0672 0.457034,-0.18289 z m 91.768996,-8.72345 c -0.23576,-0.0954 -0.70585,-0.10119 -1.04465,-0.0129 -0.33881,0.0883 -0.14591,0.16633 0.42864,0.17342 0.57456,0.007 0.85176,-0.0651 0.61601,-0.16052 z m 68.97339,-21.20193 c -0.11341,-0.29554 -0.28088,-0.46266 -0.37216,-0.37139 -0.0913,0.0913 -0.0626,0.33308 0.0635,0.53735 0.34336,0.55556 0.54405,0.44763 0.30859,-0.16596 z M 152.89464,234.6991 c -0.24059,-0.097 -0.34997,-0.31788 -0.24308,-0.49085 0.10691,-0.17296 -0.062,-0.21612 -0.37523,-0.0959 -0.45589,0.17494 -0.47688,0.27737 -0.10514,0.51301 0.25545,0.16194 0.62116,0.28446 0.81268,0.27226 0.19151,-0.0122 0.15136,-0.10151 -0.0892,-0.19851 z m 165.92019,-6.59516 c -0.11572,-0.11571 -0.41605,-0.12808 -0.66742,-0.0275 -0.27778,0.11116 -0.19527,0.19367 0.21039,0.21038 0.36707,0.0151 0.57274,-0.0672 0.45703,-0.1829 z M 305.6769,195.23373 c -0.28728,-0.18565 -0.75736,-0.32894 -1.04464,-0.31841 -0.34442,0.0126 -0.2851,0.12109 0.1741,0.31841 0.95728,0.41136 1.50707,0.41136 0.87054,0 z m 189.75358,-10.57384 c -0.57945,-2.30118 -1.98448,-3.42304 -4.11411,-3.28493 -1.37556,0.0892 -1.62331,0.21978 -1.7207,0.90687 -0.0626,0.44146 0.0684,1.0222 0.29114,1.29055 0.2227,0.26835 0.28887,0.67568 0.14703,0.90518 -0.16368,0.26485 -0.11017,0.32598 0.14651,0.16735 0.22241,-0.13747 0.83424,0.0476 1.35961,0.4112 1.35888,0.94051 3.69067,1.80644 4.02013,1.49292 0.15355,-0.14612 0.0952,-0.99624 -0.12961,-1.88914 z m -39.91604,-9.13939 c 0.61293,-0.30872 1.62692,-1.04773 2.2533,-1.64225 l 1.1389,-1.08094 2.34327,0.60554 c 1.2888,0.33304 2.72035,0.705 3.18122,0.82656 1.52634,0.40261 0.44441,-0.55591 -3.57722,-3.16916 -4.29579,-2.7914 -6.51684,-3.78061 -10.14474,-4.51825 -3.46498,-0.70452 -9.92418,-1.09735 -9.92418,-0.60356 0,0.21247 1.39832,1.08859 3.10736,1.94692 2.22417,1.11705 3.16787,1.7861 3.32025,2.35396 0.76154,2.8379 1.11153,3.52578 2.25315,4.42849 1.90298,1.50476 4.13063,1.81878 6.04869,0.85269 z m -55.23723,139.37147 -2.37805,-0.39401 2.20394,-1.45779 c 3.7053,-2.45085 5.73212,-4.46443 6.91754,-6.87237 0.9636,-1.95735 1.76272,-5.07618 1.30065,-5.07618 -0.0942,0 -0.72596,0.52316 -1.40395,1.16258 -2.67784,2.52554 -5.97482,3.15644 -9.48648,1.81533 l -1.71907,-0.65652 1.50232,-0.63803 c 2.13365,-0.90617 3.45134,-1.92186 4.08636,-3.14984 0.30243,-0.58485 0.92573,-3.13512 1.38511,-5.66726 0.45937,-2.53214 1.07139,-5.27327 1.36005,-6.09141 0.28865,-0.81813 0.52483,-1.67422 0.52483,-1.90241 0,-0.26317 -1.17795,-0.55689 -3.22101,-0.80316 -1.77155,-0.21356 -5.17973,-0.6305 -7.57372,-0.92656 -2.39398,-0.29606 -6.93821,-0.85345 -10.09828,-1.23864 -6.55606,-0.79913 -9.05186,-1.37163 -12.01348,-2.75567 -2.38568,-1.11489 -6.95179,-4.47791 -9.15256,-6.74102 l -1.4918,-1.53405 2.43558,-1.45275 c 3.31193,-1.97547 9.66487,-6.59637 13.25793,-9.64333 3.22084,-2.73132 14.6251,-14.28434 14.6251,-14.81588 0,-0.18031 0.15669,-0.32785 0.34822,-0.32785 0.21208,0 0.3503,1.59955 0.35354,4.09155 0.002,2.25035 0.12046,4.2558 0.26117,4.45654 0.42348,0.60419 2.01808,1.62899 10.52193,6.76221 4.47415,2.70075 9.08728,5.59525 10.2514,6.43222 7.44314,5.35142 9.95146,11.03733 9.95146,22.55811 0,4.99326 -0.84114,12.44886 -1.57925,13.998 -1.14852,2.41048 -7.18023,8.73591 -9.4197,9.8784 -2.75774,1.40689 -7.04997,1.76846 -11.74978,0.98979 z m -0.14652,-11.24524 c -0.2394,-0.0966 -0.63114,-0.0966 -0.87054,0 -0.2394,0.0966 -0.0435,0.17564 0.43527,0.17564 0.4788,0 0.67467,-0.079 0.43527,-0.17564 z m 18.49436,-30.23835 c -0.11025,-0.28728 -0.26202,-0.52232 -0.33729,-0.52232 -0.0753,0 -0.13685,0.23504 -0.13685,0.52232 0,0.28728 0.15178,0.52233 0.33729,0.52233 0.1855,0 0.24709,-0.23505 0.13685,-0.52233 z m -74.4702,-96.21102 c 6.76853,-3.46544 10.06963,-5.41801 10.93486,-6.46786 0.4303,-0.52211 0.3682,-0.71897 -0.52232,-1.65588 -0.55588,-0.58483 -1.55913,-1.35076 -2.22945,-1.70207 l -1.21876,-0.63875 1.31612,-0.55772 c 3.31736,-1.40578 12.5462,-2.81513 15.51063,-2.36864 1.12986,0.17016 1.15436,0.14712 1.04465,-0.98293 -0.10901,-1.12287 -1.16561,-2.18489 -4.51605,-4.53919 -0.7734,-0.54346 -0.67615,-0.5899 3.15252,-1.50537 2.1728,-0.51954 5.31658,-1.03312 6.98621,-1.14129 2.63193,-0.17052 7.60205,0.25425 9.49947,0.81186 0.49387,0.14515 0.60937,-0.0398 0.60937,-0.97595 0,-0.9788 -0.37516,-1.51063 -2.45897,-3.48583 l -2.45896,-2.3308 1.32726,-0.28096 c 2.24647,-0.47555 10.84606,-0.25372 13.51485,0.34864 8.15767,1.84118 7.867,1.79634 8.20302,1.26525 0.1747,-0.27609 0.32003,-0.66719 0.32296,-0.86908 0.005,-0.33902 -1.20429,-2.28323 -2.67729,-4.30461 l -0.61307,-0.84131 3.30187,0.22649 c 3.92386,0.26917 12.28488,2.10109 18.00176,3.94423 l 4.10382,1.32308 -2.95984,0.2483 c -9.45623,0.79328 -19.75292,3.24477 -29.42432,7.00552 -2.48974,0.96815 -9.54114,4.28354 -15.66975,7.36753 -13.48019,6.7834 -16.24779,8.07183 -21.80915,10.15304 -3.66932,1.37317 -16.90682,5.38975 -17.64402,5.35363 -0.13395,-0.007 2.73372,-1.53625 6.37258,-3.39933 z"
       id="path1" /></g></svg>
